<svg width="22" height="22" viewBox="0 0 22 22" fill="none" xmlns="http://www.w3.org/2000/svg">
<path fill-rule="evenodd" clip-rule="evenodd" d="M19.2501 5.5H2.75006V8.25C3.76258 8.25 4.58339 9.07081 4.58339 10.0833V13.25C4.58339 16.0784 4.58339 17.4926 5.46207 18.3713C6.34075 19.25 7.75497 19.25 10.5834 19.25H11.4167C14.2452 19.25 15.6594 19.25 16.538 18.3713C17.4167 17.4926 17.4167 16.0784 17.4167 13.25V10.0833C17.4167 9.07081 18.2375 8.25 19.2501 8.25V5.5ZM9.70839 10.0833C9.70839 9.53105 9.26068 9.08333 8.70839 9.08333C8.15611 9.08333 7.70839 9.53105 7.70839 10.0833V14.6667C7.70839 15.219 8.15611 15.6667 8.70839 15.6667C9.26068 15.6667 9.70839 15.219 9.70839 14.6667V10.0833ZM14.2917 10.0833C14.2917 9.53105 13.844 9.08333 13.2917 9.08333C12.7394 9.08333 12.2917 9.53105 12.2917 10.0833V14.6667C12.2917 15.219 12.7394 15.6667 13.2917 15.6667C13.844 15.6667 14.2917 15.219 14.2917 14.6667V10.0833Z" fill="#222222"/>
<path d="M9.22912 3.08971C9.33357 2.99225 9.56374 2.90613 9.88392 2.84471C10.2041 2.78329 10.5964 2.75 11 2.75C11.4036 2.75 11.7959 2.78329 12.116 2.84471C12.4362 2.90613 12.6664 2.99225 12.7708 3.08971" stroke="#222222" stroke-width="2" stroke-linecap="round"/>
</svg>
